<?xml version="1.0" standalone="no"?>
<!DOCTYPE svg PUBLIC "-//W3C//DTD SVG 20010904//EN"
 "http://www.w3.org/TR/2001/REC-SVG-20010904/DTD/svg10.dtd">
<svg version="1.0" xmlns="http://www.w3.org/2000/svg"
 width="512.000000pt" height="512.000000pt" viewBox="0 0 512.000000 512.000000"
 preserveAspectRatio="xMidYMid meet">

<g transform="translate(0.000000,512.000000) scale(0.100000,-0.100000)"
fill="#000000" stroke="none">
<path d="M2330 4789 c-475 -41 -864 -201 -1119 -460 -236 -240 -356 -587 -322
-937 28 -296 123 -504 321 -702 243 -244 554 -382 1251 -554 476 -118 609
-165 736 -260 108 -81 156 -160 174 -281 22 -146 -17 -275 -113 -381 -169
-185 -459 -274 -796 -245 -211 19 -348 77 -472 201 -89 89 -148 186 -230 376
-66 153 -106 224 -166 292 -128 145 -351 182 -542 90 -106 -50 -204 -176 -237
-303 -50 -195 31 -493 207 -756 76 -114 234 -280 347 -365 221 -165 517 -273
891 -325 143 -20 564 -17 715 4 256 38 464 100 657 198 496 253 769 694 768
1240 -1 353 -98 618 -306 838 -233 248 -563 396 -1304 586 -470 121 -531 139
-655 200 -132 64 -212 131 -250 210 -24 49 -27 63 -23 142 4 109 22 148 103
228 67 66 163 122 268 154 142 43 379 50 557 15 117 -24 191 -63 274 -147 83
-82 130 -150 205 -292 139 -262 237 -353 407 -374 236 -29 445 110 516 342 18
59 20 86 15 181 -20 422 -378 817 -897 990 -269 90 -633 125 -980 95z m-466
-380 c20 -16 26 -29 26 -58 0 -48 -23 -70 -115 -112 -150 -68 -297 -188 -361
-295 -39 -67 -114 -82 -149 -31 -27 39 -18 79 34 153 88 125 220 231 401 321
97 47 126 52 164 22z m-593 -688 c28 -29 29 -31 23 -108 -10 -156 -24 -183
-89 -183 -58 0 -85 35 -84 107 1 110 13 164 43 190 37 31 71 29 107 -6z"/>
</g>
</svg>
